<svg xmlns="http://www.w3.org/2000/svg" width="19.806" height="18.633" viewBox="0 0 19.806 18.633"><rect width="3" height="8.5" transform="translate(11.675 12.623) rotate(-45)" fill="#6d6d6d"/><path d="M17.5,10A3.543,3.543,0,0,0,21,6.5a4.193,4.193,0,0,0-.4-1.6L17.9,7.6,16.4,6.1l2.7-2.7A4.193,4.193,0,0,0,17.5,3,3.543,3.543,0,0,0,14,6.5a5.019,5.019,0,0,0,.2,1.2L12.3,9.6,10.5,7.8l.8-.8L9.9,5.6,12,3.5a2.9,2.9,0,0,0-4.2,0L4.2,7,5.6,8.4H2.8l-.7.7,3.5,3.5.7-.6V9.1l1.4,1.4.7-.7,1.8,1.8L2.8,19,5,21.2,16.3,9.8A5.019,5.019,0,0,0,17.5,10Z" transform="translate(-2.1 -2.6)" fill="#6d6d6d"/></svg>