<svg xmlns="http://www.w3.org/2000/svg" width="21.9" height="17.9" viewBox="0 0 21.9 17.9"><path d="M9,15c-2.7,0-8,1.3-8,4v2H17V19C17,16.3,11.7,15,9,15Z" transform="translate(-1 -3.1)" fill="#6d6d6d"/><path d="M22.1,6.8V6.2l.7-.6c.1-.1.1-.2,0-.2l-.7-1.2c0-.1-.1-.2-.1-.1l-.9.3-.6-.3-.1-.9c0-.1-.1-.1-.2-.1H18.8a.215.215,0,0,0-.2.2l-.1.9-.6.3L17,4.1c-.1,0-.2,0-.2.1l-.7,1.2v.2l.7.6v.6l-.7.6c-.1.1-.1.2,0,.2l.7,1.2c0,.1.1.1.2.1l.9-.4.6.3.1.9c0,.1.1.1.2.1h1.4a.349.349,0,0,0,.2-.1l.1-.9.6-.3.9.4c.1,0,.2,0,.2-.1l.7-1.2V7.4Zm-2.6.9a1.216,1.216,0,0,1-1.2-1.2,1.2,1.2,0,0,1,2.4,0A1.216,1.216,0,0,1,19.5,7.7Z" transform="translate(-1 -3.1)" fill="#6d6d6d"/><path d="M19.9,11.7l-.5-.9a.1.1,0,0,0-.1-.1l-.7.3a.758.758,0,0,0-.4-.2l-.1-.7A.1.1,0,0,0,18,10H17c-.1,0-.1,0-.1.1l-.1.7c-.1.1-.3.1-.4.2l-.6-.2c-.1,0-.1,0-.1.1l-.5.9V12l.5.4v.4l-.5.4c-.1,0-.1.1,0,.2l.5.9a.1.1,0,0,0,.1.1l.6-.2a.758.758,0,0,0,.4.2l.1.7a.1.1,0,0,0,.1.1h1c.1,0,.1,0,.1-.1l.1-.7c.1-.1.3-.1.4-.2l.6.2c.1,0,.1,0,.1-.1l.5-.9v-.2l-.5-.4v-.4l.5-.4A.774.774,0,0,0,19.9,11.7Zm-2.4,1.6a.8.8,0,0,1,0-1.6.86.86,0,0,1,.8.8A.736.736,0,0,1,17.5,13.3Z" transform="translate(-1 -3.1)" fill="#6d6d6d"/><path d="M4.7,9h8.5a.472.472,0,0,0,.5-.5h0a.472.472,0,0,0-.5-.5H13a3.756,3.756,0,0,0-2-3.4v.9a.5.5,0,0,1-1,0V4.1c-.3,0-.6-.1-1-.1s-.7.1-1,.1V5.5a.5.5,0,0,1-1,0v-1A4.033,4.033,0,0,0,5,8H4.7a.536.536,0,0,0-.5.5h0A.536.536,0,0,0,4.7,9Z" transform="translate(-1 -3.1)" fill="#6d6d6d"/><path d="M9,13a4.079,4.079,0,0,0,3.9-3H5.1A4.079,4.079,0,0,0,9,13Z" transform="translate(-1 -3.1)" fill="#6d6d6d"/></svg>