<svg xmlns="http://www.w3.org/2000/svg" width="18" height="18" viewBox="0 0 18 18"><path d="M12,3a9,9,0,0,0,0,18,1.538,1.538,0,0,0,1.5-1.5,1.284,1.284,0,0,0-.4-1,1.777,1.777,0,0,1-.4-1A1.538,1.538,0,0,1,14.2,16H16a4.951,4.951,0,0,0,5-5C21,6.6,17,3,12,3ZM6.5,12a1.5,1.5,0,0,1,0-3,1.5,1.5,0,0,1,0,3Zm3-4A1.538,1.538,0,0,1,8,6.5a1.5,1.5,0,0,1,3,0A1.538,1.538,0,0,1,9.5,8Zm5,0A1.538,1.538,0,0,1,13,6.5a1.5,1.5,0,0,1,3,0A1.538,1.538,0,0,1,14.5,8Zm3,4A1.5,1.5,0,1,1,19,10.5,1.538,1.538,0,0,1,17.5,12Z" transform="translate(-3 -3)" fill="#6d6d6d"/></svg>