<?xml version="1.0" encoding="utf-8"?>
<!-- Generator: Adobe Illustrator 25.0.1, SVG Export Plug-In . SVG Version: 6.00 Build 0)  -->
<svg version="1.1" id="NEXTDOOR_interieurontwerp" xmlns="http://www.w3.org/2000/svg" xmlns:xlink="http://www.w3.org/1999/xlink"
	 x="0px" y="0px" viewBox="0 0 656 194.2" enable-background="new 0 0 656 194.2" xml:space="preserve">
<g>
	<path fill="#A19688" d="M309,110.6l0.4-1.6v-2.4c0-0.7,0-1.3-0.5-1.8c-0.9-1.6-1.2-1.8-2-2c-0.4-0.1-0.8-0.2-1.5-0.6l-0.2,0
		c-4.2,0-5.2,0.1-7.3,0.3c-1,0.1-2.4,0.2-4.4,0.4c-0.8-0.1-1.5-0.2-2.1-0.2c-4.2-0.4-4.6-0.4-7.7-3.4l-1.5-0.5l-0.1,0
		c-1.4,0-1.7,0.7-2,1.7c0,1.1,1.2,1.8,1.4,1.9c4.1,2.1,4.8,4.2,4.8,10.3c0,8.6-2.3,17.1-6.1,22.7c-0.3,0.4-0.5,0.8-0.7,1.2
		c-1.4,2.2-1.4,2.3-4,3.5c-0.4,0-0.4,0-0.5-0.1l-0.1-0.1c-3-1.4-3-2.3-3.1-4.7c0-0.4,0-0.7-0.1-1.1l0-0.6c0.2-3.1,0.2-3.8,1.1-6.8
		c3-8.1,6.8-13.6,11.2-16.5c0.3-0.3,1-1.1,1-2.1l0-0.1c-0.4-1.5-0.7-2.5-2.7-2.5l-1.5,0.5l-0.1,0.1c-3.3,2.3-6,5.5-8.1,9
		c-0.2,0.1-0.2,0.3-0.2,0.5c-0.9,1.5-1.6,3.1-2.3,4.7c-2.6,5.2-5.4,10.5-8.6,16.2c-1.8,3.3-3.8,6.6-5.8,9.8l-3.5,4.8l-2,2l-0.8,0.6
		H249l-0.2-0.1l-0.4-0.7l-0.7-2.4c-0.2-1.8-0.2-3.5-0.2-5.5c0-3.7,0.2-7.5,0.7-11.3c0.9-6.7,2.1-13.4,3.2-19.7l0.2-0.4
		c3.4-6.4,6.8-13.6,10.2-21.1c2.9-6.5,6.3-14.2,9.1-21.8c3.3-7.9,5.9-15.1,7.9-22c1.1-3.7,2.3-7.6,3.2-11.4l0.7-2.9
		c0.3-1.2,0.5-2.2,0.5-2.9c0.2-1.2,0.2-2.1,0.2-3.2v-1.6l0-0.1c-0.1-0.2-0.1-0.4-0.2-0.6c-0.1-0.5-0.2-1-0.6-1.5
		c-0.1-0.1-0.1-0.1-0.2-0.2c-0.2-0.2-0.4-0.6-0.9-0.8l-0.7-0.2l-1.5,0c-0.5,0-1.2,0.2-1.6,0.5c-1.2,0.5-2.1,1.4-2.8,2.1
		c-0.5,0.5-0.9,1-1.2,1.4c-0.3,0.4-0.5,0.7-0.9,1c-0.7,0.9-1.2,1.8-1.6,2.7c-1.1,1.8-2.1,3.6-2.7,5.4c-1,2-1.9,3.6-2.5,5.4
		c-2.6,6.5-4.9,13.3-7.1,19.9l-6.1-0.4h-3c-4.6,0.2-8.5,0.5-12.5,0.9c-8.1,0.9-16.1,2.2-24.3,3.6c-1.3,0.4-2.7,0.6-4.1,0.8
		c2.4-7.5,5.1-15.2,7.7-22.6l0-0.1c3.4-9.1,6.5-16.4,9.7-23c0.3-0.3,0.3-0.8,0.3-1.3c0-0.8-0.5-1.6-1.3-2.1l-1.1-0.3
		c-1,0-2.1,0.7-2.4,1.6c-4.1,8.1-7.4,16.5-10,23.6c-2.9,8-5.7,16.1-8.2,24l-0.4,1.5c-4.1,0.7-8,1.6-12.1,2.5l-2.4,0.5
		c-7.7,1.7-15.7,3.5-23.8,5.8l-0.3,0c-1.1,0.3-1.9,1.3-1.9,2.4l0.3,0.8c0.5,1.2,1.4,1.8,2.6,1.8h0.5l0.1,0
		c5.6-1.7,11.2-3.3,16.6-4.7c2.3-0.6,4.6-1.3,7-1.9l12-2.9c-4.4,14.9-7.7,28.8-10.2,42.4c-0.3,0.6-0.7,1.3-1,1.9
		c-0.9,1.8-1.8,3.6-3,5.4c-1.7,2.8-3.2,5.1-5.2,7.3c-2.5,2.7-4.8,4.5-7.2,5.5c-1.4,1-2,1-3.3,1.2l-1.5,0.3l-3-0.4l-3.8-1.5
		c-0.4-0.4-0.7-0.7-1.1-1c-0.7-0.7-1.4-1.3-2-2c-3.4-3.3-4.4-5.5-6.2-9.4l-0.3-0.6v-0.3l0.2-0.6c2.5-5.9,5.2-11.8,8.1-17.3
		c0.5-1,1-1.8,1.4-2.6c2.1-3.8,2.9-5.4,6.3-9.7c0.4-0.9,1.1-1.5,2.2-2c1-0.2,2.1-1.3,2.1-2.4l0-0.5c-0.3-1-1.3-2.1-2.7-2.1l-0.5,0
		c-1,0.2-1.5,0.5-2.2,1c-1.5,1.2-1.6,1.2-2,1.8c-0.2,0.3-0.5,0.6-1,1.4c-1.3,1.5-2.1,2.8-2.7,4.2c-1.9,2.4-3.1,5.2-4.4,7.8l-0.4,0.9
		c-2.3,4.9-4.7,10-6.7,15.5c-1.2-3-2.2-6-3-8.9v-0.3l-0.1-0.1c-0.7-1-1.5-1.5-2.4-1.5c0,0,0,0,0,0l-0.8,0.2c-0.9,0-1.8,1.1-1.8,2
		l0.2,1c0.6,2.3,1.4,4.5,2.2,6.6c-0.4,0.1-0.7,0.3-0.8,0.4l-4.3,6.6c-1.5,1.9-3.3,3.9-5.2,5.8c-1.8,2-3.8,3.7-5.8,5
		c-1.9,1.3-4.3,2.8-6.9,3.5l-1.7,0.6c-0.2,0-0.3,0-0.4,0.1c-0.2,0.1-0.5,0.1-1.3,0.1h-0.2l-0.1,0.1c-0.1,0.1-0.3,0.1-0.6,0.1l-2.6,0
		c-1.1-0.2-2.1-0.4-2.7-1l-0.1-0.1c-0.3-0.2-0.5-0.5-0.7-0.9l-0.7-1.3c-0.3-1.3-0.4-2.8-0.4-3.9v-2.2c2.7-1,4.8-2.1,6.4-3.5
		c2.3-1.6,4.4-3.4,6.2-5.4c1.9-2.4,3.3-4.7,4.6-6.9c0.7-1.2,1.2-2.5,1.6-3.9l0-0.1c0-0.6,0.2-1.2,0.4-1.9l0-2.4
		c0-0.8-0.3-1.8-0.8-2.5c-0.5-0.7-0.9-1.3-1.6-2l-2.5-1l-2.9,0.2c-1.4,0.4-2.7,1.1-4.3,2.3l-3,3.2c-1.6,2.2-3.2,4.4-4.6,7
		c-0.8,1.7-1.5,3.4-2.3,5.2c-2.2,3.7-4.5,7.5-6.8,11.2c-2.4,3.8-5,7.7-7.9,11.8c-3.2,4.7-5.7,8.1-8.3,11.3l-4.7,5.3l-4.7,4.9
		c-1.8,1.5-3.6,3.1-5.6,4c-1.1,0.8-2.3,1.1-2.7,1.3h-0.7l-0.7,0.2l-0.7-0.2v-0.3h-0.4c-0.2,0-0.3,0-0.6-0.5l-0.7-1.1
		c-0.4-0.8-0.6-1.7-0.9-2.7l-0.2-4.6v-2c0-3.3,0.4-6.7,0.8-10.1c0.1-1.2,0.3-2.4,0.4-3.6c0.6-4.1,1.3-7.9,2.1-12L67,127
		c0.4-3,1.1-6,1.7-8.8c0.3-1.6,0.7-3.3,1-4.9c2.9-15.1,3.9-19.1,5.6-26.2c0.9-3.6,2-8,3.7-15.1c0.6-2.8,1.3-5.6,1.9-8.5
		c1.4-6.2,2.9-12.6,4.2-19.1l0.1-0.3c0.9-4.5,1.8-9.1,2.4-13.7c0.9-4.5,1.3-8.9,1.8-14.3l0-7.4c-0.2-1.3-0.5-2.7-0.9-4.1
		c-0.2-0.7-0.5-1.3-0.9-2C87,1.9,86.3,1,85.3,0.5C84.1,0,83.1,0,81.9,0c-0.6,0.1-1.1,0.4-1.5,0.6c-0.3,0.1-0.5,0.2-0.9,0.4
		c-1.4,0.7-2.4,1.6-3.2,2.5c-1.7,1.3-3.1,2.9-4.4,4.4c-0.3,0.3-0.6,0.7-0.9,1c-3.6,4.6-6.2,8.3-8.4,11.8c-1.8,2.7-3.4,5.4-5,8
		c-0.8,1.3-1.6,2.7-2.5,4.1c-9,15.7-17.2,32.4-25.2,51.1c-3.4,8.2-6.8,17.1-10.2,26.4c-3.8,10.6-6.4,18.9-8.6,27.1
		c-2.6,9.3-4.6,18.4-6.1,27.6c-0.6,3.9-1,7.6-1.4,11c0-0.2-0.1-0.5-0.1-0.7v-16.9c0.2-11.3,0.9-22.5,2-33.5
		c0.9-11.3,2.3-22.5,4.1-33.3c0.9-5.7,2.1-11.2,3.4-16.4c1.1-5.5,2.7-10.9,4.7-15.9l0.2-0.7l0-0.1c0-1-0.7-2.1-1.9-2.6l-0.7-0.2
		l-0.1,0c-1.1,0-2.2,0.8-2.4,1.8c-2,5.6-3.6,11.2-4.8,16.7C6.8,79.6,5.9,85.3,5,90.7c-1.4,9.9-2.6,21-3.6,33.8
		C0.7,135,0,146.8,0,158.3c0,5.6,0,11.3,0.2,16.9c0.2,1.5,0.2,2.9,0.2,4.2l0.5,4.2c0.2,2.8,0.5,5.8,1.2,8.8c0.2,0.4,0.6,0.7,1.1,0.8
		c0.1,0.6,0.4,0.9,1.1,0.9c0.4,0,1.1-0.4,1.1-1.1v-2.9c0-7.5,0.7-15.5,2.3-25c1.6-8.2,3.8-17.1,6.6-27.3c4.6-16,10.8-32.8,19.5-52.8
		c3.2-7.6,7-15.7,12-25.5C49.4,51.8,53.8,43.8,59,35l7.5-12c0.6-0.8,1.2-1.7,1.8-2.5c2.1-3,4.3-6,6.6-8.8c1.2-1.6,2.7-3.1,4.7-4.8
		c0.7-0.7,1.5-1.3,2.4-1.7l0.7-0.4L83,5.1h0.1v0.1l0.7,1.2c0.2,0.7,0.4,1.8,0.4,3l0,6.6c-0.5,4.5-1.2,9.4-1.8,13.7l-2.7,13.8
		c-3.3,16.1-4.9,22.9-7,31.6c-1.4,5.9-3,12.5-5.5,23.5l-3.2,13.8l-0.4,2.1c-0.8,4-1.5,7.7-2.1,11.7c-0.9,4.8-1.6,9.4-2.3,14.2
		c-0.5,4.2-0.9,7.9-0.9,11.6v2.7c0,2.4,0.2,4.9,0.7,7.5c0.4,1.3,0.9,2.7,1.6,3.8c0.2,0.7,0.7,1.4,1.2,1.9c0.7,0.7,1.4,1.2,2.1,1.4
		c0.3,0.2,0.6,0.3,0.8,0.3l0.6,0.2l1.3,0c0.4,0,0.7,0,1.2-0.2c0.3,0,0.7,0,1-0.3c1.5-0.5,2.6-1,3.6-1.6c1.8-1.1,3.3-2.4,4.8-3.7
		c0.4-0.3,0.8-0.7,1.2-1c3.3-3.2,6.5-7,9.3-10.9c2.8-3.6,5.5-7.3,8.4-11.6c2.7-4,5.2-8,7.6-11.9l2.7-4.3l-0.4,2.6
		c0,1.3,0,2.7,0.2,4.2c0,1.6,0.4,2.9,1.2,4.6c0.3,0.7,0.7,1.5,1.4,2.1c0.5,0.8,1.4,1.3,2.2,1.7c1.3,0.8,3.2,1.4,4.7,1.4
		c0.6,0,0.8-0.1,1.1-0.1c0.3-0.1,0.5-0.1,1.2-0.1l1.1-0.2c0.8,0,1.1-0.1,1.5-0.3c0.2-0.1,0.4-0.1,0.6-0.2l1-0.2l2-0.9
		c2.8-1,5.4-2.8,7.1-4.1c2.6-2,4.5-3.8,6.2-5.6c1.8-2,3.4-3.9,5-6.3c1.4-1.9,2.9-4.1,4.3-6.3c0.8,1.9,1.7,3.7,2.6,5.4
		c-3.8,10.4-4.5,13.5-6.8,24.8l-0.1,0.5c-0.4,3.2-0.8,6.1-0.8,9.3c0,0.4,0.4,0.8,0.9,0.8h0.2c0.6,0,0.9-0.2,0.9-0.6l0-0.2
		c0.2-3.2,0.7-6.4,1.4-9.5c0.8-3.6,1.7-6.7,2.7-9.3c0.6-2.8,1.6-5.6,2.6-8.4c0.4-1.1,0.8-2.2,1.2-3.4c1.7,2.5,3.5,5.1,5.7,7.5
		c1.2,1.2,2.9,2.3,4.4,2.9c2.5,2,4,2.3,7.5,2.5c0.9,0,1.9,0,2.8-0.2c1.6-0.4,3.2-0.9,5.1-1.8c2.8-1.8,5.1-4.1,7.3-6.3
		c1.4-1.8,2.6-3.8,3.7-5.6c0.5-0.8,1-1.6,1.5-2.4c0.2-0.3,0.3-0.7,0.5-1c-0.3,2.1-0.6,4.2-0.8,6.4c-0.4,4.2-0.9,8.4-0.9,12.7
		c0,2.2,0,4.5,0.2,6.7l0,0.3c0.2,1.9,0.5,4.1,1.1,6.2c0.5,1.1,0.9,2.3,1.6,3.2c0.7,1.2,1.7,2.1,2.9,2.8h0c1.1,0.6,2.4,0.9,4.1,0.9
		c0,0,0,0,0,0c1.4-0.2,2.6-0.7,3.8-1.2c2.1-1.1,3.7-2.7,5.3-4.3c1.6-1.6,3-3.4,4.1-4.9c2.3-3.3,4.6-7,6.8-11.1
		c1.7-3.2,3.3-6.4,4.7-9.6v0.5c0,1.2,0.2,2.3,0.5,3.4c0.2,1.1,0.5,2.3,1.2,3.3l1.1,1.6l1.7,1.2l0.5,0.2c0.5,0.2,0.9,0.3,1.5,0.3
		l0.7,0.2l1.5-0.5c1.2-0.5,2.1-1.1,3-1.8l4.2-4.5c2-2.5,3.6-5,5-7.3l-0.7,6.6l0,0.7c-0.2,3.8-0.4,7.3-0.4,11.1c0,2,0.2,4,0.7,6.4
		l1.1,3.1l1.2,1.7c0.7,0.7,1.5,1,2.8,1h1.1l0.1-0.1c0.1-0.1,0.2-0.1,0.4-0.1h0.4v-0.2c0,0,0,0,0,0l0.2,0l0.1-0.1
		c0.4-0.4,0.8-0.8,1.2-1l2.2-2.6l3.2-4.9c2-3.1,3.8-6.3,5.9-10.5c1.3-2.3,2.4-4.5,3.4-6.5c0,0.1,0,0.2-0.1,0.3c0,4.9,0,9.1,6.1,12.1
		l1.8,0.3l1-0.2c3.1-0.7,5-3.7,6.3-5.9l0.3-0.5c4.2-7.1,5.7-17.6,5.7-24.4c0-3.2,0-4.6-1.2-7.9l2.8,0.6l8.7,0l2-0.2
		c0.4,0,0.8,0.1,1.1,0.1c2.1,0.1,2.6,0.1,3.9,1.4l-0.4,1.9c-1.3,3.5-2.7,6.6-4.1,9.6c-2.7,5.7-5.2,11.2-6.1,17.9
		c0,0.9,0,1.8,0.2,2.8c0,0.1,0.1,0.3,0.1,0.4c0.2,0.7,0.5,1.6,1.1,2.1c1.5,2,3.5,2.1,5.5,2.1c0,0,0.1,0,0.1,0l2.9-0.4l0.1,0
		c6.4-3.1,10.3-10,11.6-20.6c0-1.8,0-3.6-0.5-5.4C315.2,112.7,312,110.8,309,110.6z M113.5,124.4l-1.6,0.6c0.1-0.5,0.2-0.9,0.4-1.5
		c0.2-1.4,0.5-2.4,0.9-3.5c0.7-2.4,1.6-4.9,2.5-7.3c1.1-2.2,2.2-4.4,3.6-6.4c0.6-1.1,1.5-1.9,2.5-2.9c0.5-0.7,1.4-1.3,2.6-1.9
		c0.4-0.2,0.8-0.2,1.2-0.2c0.4,0,0.8,0.2,1.2,0.4c0.7,0.3,1.1,1,1.4,2.1l-0.2,3.5c-0.2,1.2-0.6,2.3-1.3,3.4c-1,2.2-2.2,4.1-4,6.3
		c-1.5,1.7-3.4,3.6-5.8,5.3L113.5,124.4z M308.4,112.7c1.6,0,2.7,0.3,3.2,0.8c2.5,1.7,2.5,5,2.5,8.3c-0.9,7.4-5.3,17.6-11.4,17.6
		h-0.9c-1.2,0-2-0.4-2.1-0.5l0-0.2c-0.2-0.4-0.4-1.2-0.4-1.8c0-1.9,0.2-2.8,0.9-4.5c1.1-2.5,2-4.6,2.9-6.6c1.8-3.9,3.3-7.3,5-12.4
		C308.3,113.2,308.4,113,308.4,112.7z M194,128.4c0.4-4,1.1-7.9,2-12.4c1.8-9.5,3.6-17.3,5.7-24.4c1.7-7,3.7-13.9,6-21.3l5.9-1.3
		c8.5-1.9,16.6-3.4,24-4.4c4-0.4,8.1-0.9,12.2-1.1l3,0l1.5-0.2l1.6,0.2c1,0,1.5,0.1,1.9,0.1c0.1,0,0.2,0,0.3,0c0,0.1,0,0.1-0.1,0.2
		c-2.3,7.3-4.3,14.9-6.1,22.7c-1.7,6.5-3.2,13.3-4.5,20.4l-0.2-0.4c-0.4-1.1-1.1-2-2.1-3c-0.5-0.5-1.1-0.9-1.8-1.1
		c-0.1-0.2-0.3-0.3-0.7-0.3l-0.4-0.2l-1.3,0c-1.7,0-3.2,0.7-3.9,1l-3,2c-1.8,1.7-3.1,3.3-4.1,5c-1.1,1.8-2,3.6-3,5.4
		c-1.1,2.4-2,4.5-2.6,6.6c-2.4,5.6-5.1,11.1-8.1,16.5c-2.2,3.8-4.5,7.3-6.8,10.4c-1,1.6-2.3,3.1-4,4.8c-1.2,1.2-2.8,2.6-4.7,3.3
		c-0.9,0.4-1.7,0.6-2.5,0.8c-0.6,0-1.4-0.2-2-0.6c-1.2-0.8-1.9-2.5-2.5-4.2c-0.4-1.7-0.7-3.8-0.7-5.9c-0.2-2-0.2-4-0.2-5.9
		C193.1,136.5,193.6,132.1,194,128.4z M228.5,127.7c0.2-1.9,0.7-3.8,1.3-5.5c0.3-1.4,0.8-2.6,1.3-3.9c0.1-0.4,0.3-0.8,0.4-1.1
		c0.2-0.4,0.4-0.7,0.5-1.1c0.7-1.3,1.3-2.6,2.2-3.8c1-1.6,2.1-3.1,3.1-4.1c1.4-1.4,2.7-2.3,4-2.3h0.3l0.6,0.4c0.5,0.4,1,0.9,1.5,1.9
		c0.8,1.2,1.5,2.9,2.2,4.9l0,0.3l-0.9,7l-1.3,1.9c-2.1,3.5-4.4,6.8-6.5,9.5l-0.2,0.2c-1.3,1.4-2.3,2.7-3.8,3.7l-0.1,0.1
		c-0.2,0.3-0.5,0.5-0.9,0.7l-1.1,0.2l-0.4,0.2l-1.2-0.6c-0.8-0.5-1.4-1.7-1.6-3.6C228,131.2,228.2,129.3,228.5,127.7z M266.3,54.1
		l3.8-11.1c0.5-1,0.9-2.1,1.3-3.1c1.1-2.6,2.1-5,3.4-7.3c0.2-0.3,0.4-0.7,0.6-1c0.7-1.3,1.5-2.6,2.3-3.6l1.5-1.7l0.6-0.1l0.2,0.2h0
		c0,0,0,0.1,0,0.1c0,0.1,0.1,0.3,0.2,0.5l0.2,2.5l-0.4,4.2l-0.7,2.7c-0.7,3.8-1.8,7.6-2.9,11.3c-2.6,8.6-5.1,15.7-7.5,22
		c-5.5,14.2-10.7,25.8-16.1,36.3c2.6-12.7,5.9-26.1,10.1-40.7L266.3,54.1z"/>
	<path fill="#A19688" d="M355.3,92.4l-0.1-0.2c-1.1-0.9-2.3-1.8-3.8-2.3l-2.6-0.4c-0.7,0-1.4,0.2-2.1,0.4c-0.9,0-1.6,0.6-2,0.9
		c-0.7,0.2-1.4,0.7-1.9,1.2l-2.7,3.1c-1.6,2.3-2.8,4.8-3.9,7.2c-1.1,2.5-2.1,5-3,7.4l0,0.1c-1.1,3.5-2.2,7.1-3.1,10.6
		c0.3-2.8,0.7-5.4,1.3-7.9c0.2-1.3,0.6-2.7,1.1-4.4c0.4-1.5,0.8-2.7,1.4-3.7h0.3l0.3-1.5c0-0.8-0.6-1.8-1.3-2.3l-1.4-0.3
		c-0.8,0-1.9,0.5-2.2,1.3c-1.2,1.8-1.6,3.5-2.1,5.2c-0.5,1.6-0.7,3.2-0.9,4.9c-0.4,2.9-0.6,6-0.9,9l0,0.6c-0.2,3.3-0.2,6.5-0.2,9.8
		l0.2,9.6l0,0.1c0.2,0.6,0.5,1.4,1.5,1.4c0.8,0,1.5-0.4,1.5-1.2c0.8-4.7,1.8-10.1,2.9-15.3c1.1-5,2.3-10.2,4.1-15.1
		c0.7-2.4,1.6-4.9,2.7-7.3c0.9-2.5,2.1-4.7,3.6-6.8l2.4-2.8l1.3-1.1c0.1-0.1,0.2-0.1,0.4-0.2c0.3-0.2,0.8-0.4,1.1-0.4l1.7-0.2
		l1.8,0.2c1,0.2,1.9,0.8,3.1,1.7l0.6,0.3l0.8-0.4l0.4-0.7L355.3,92.4z"/>
</g>
<g>
	<path fill="#A19688" d="M413.9,55.2l-6.8-6.7v-7.8c0-0.6-0.5-1.1-1.2-1.1c-0.6,0-1.2,0.5-1.2,1.1v5.5l-7.2-7.1
		c-0.4-0.4-1.2-0.4-1.6,0l-16.4,16c-0.2,0.2-0.3,0.5-0.3,0.8c0,0.3,0.1,0.6,0.3,0.8c0.4,0.4,1.2,0.4,1.7,0l4.5-4.4v14.5
		c0,0.3,0.1,0.6,0.3,0.8c0.2,0.2,0.5,0.3,0.8,0.3h19.1c0.3,0,0.6-0.1,0.8-0.3c0.2-0.2,0.3-0.5,0.3-0.8V51.7l5.2,5.1
		c0.4,0.4,1.2,0.4,1.7,0c0.2-0.2,0.3-0.5,0.3-0.8C414.2,55.7,414.1,55.4,413.9,55.2z M404.7,49.4v16.3H388l-0.1-15.6l8.8-8.6
		L404.7,49.4z"/>
	<path fill="#A19688" d="M396.7,31.9c-13.1,0-23.7,10.4-23.7,23.3c0,12.8,10.6,23.3,23.7,23.3c13.1,0,23.7-10.4,23.7-23.3
		C420.4,42.3,409.7,31.9,396.7,31.9z M396.7,76.3c-11.9,0-21.6-9.5-21.6-21.2c0-11.7,9.7-21.2,21.6-21.2c11.9,0,21.6,9.5,21.6,21.2
		C418.3,66.8,408.6,76.3,396.7,76.3z"/>
</g>
<path fill="#A19688" d="M456.5,31.9c-13.1,0-23.7,10.4-23.7,23.2s10.6,23.2,23.7,23.2c13.1,0,23.7-10.4,23.7-23.2
	S469.5,31.9,456.5,31.9z M456.5,76.3c-11.9,0-21.6-9.5-21.6-21.1c0-11.3,9-20.5,20.5-21.1v11.7l-12.4,15.6c-0.3,0.3-0.3,0.8-0.1,1.1
	c0.2,0.4,0.6,0.6,1,0.6h11.5v1.6c0,0.6,0.5,1.1,1.1,1.1c0.6,0,1.1-0.5,1.1-1.1v-1.6h11.5c0.4,0,0.8-0.2,1-0.6
	c0.2-0.4,0.1-0.8-0.1-1.1l-12.4-15.6V34c11.5,0.6,20.5,9.8,20.5,21.1C478,66.8,468.4,76.3,456.5,76.3z M446.1,61l10.4-13.1L466.8,61
	H446.1z"/>
<path fill="#A19688" d="M516.2,31.9c-13.1,0-23.7,10.4-23.7,23.2s10.6,23.2,23.7,23.2c13.1,0,23.7-10.4,23.7-23.2
	S529.3,31.9,516.2,31.9z M516.2,76.3c-11.9,0-21.6-9.5-21.6-21.1c0-8,4.7-15.3,12-18.9c1.7,6.1,2.6,13.8,2.6,21.2
	c0,3.3-0.2,6.5-0.5,9.6c0,0.3,0.1,0.6,0.3,0.8c0.2,0.3,0.5,0.4,0.9,0.4h0.1c0.6,0,1.1-0.4,1.2-1c0.3-3.2,0.5-6.5,0.5-9.8
	c0-1.1,0-2.2-0.1-3.2l0-0.3h12.4v13.1c0,0.6,0.5,1.2,1.2,1.2c0.7,0,1.2-0.5,1.2-1.2V52.9c0-0.3-0.1-0.6-0.4-0.8
	c-0.2-0.2-0.5-0.3-0.8-0.3h-13.7l0-0.2c-0.3-5.7-1.3-11.4-2.6-16.1c2.4-0.9,4.9-1.3,7.4-1.3c11.9,0,21.6,9.5,21.6,21.1
	S528.1,76.3,516.2,76.3z"/>
<g>
	<path fill="#C3D8ED" d="M376.8,94.2h3.3v20.4h-3.3V94.2z"/>
	<path fill="#C3D8ED" d="M401.2,94.2v20.4h-3.3l-10.1-15.2v15.2h-3.3V94.2h3.3l10.1,15.2V94.2H401.2z"/>
	<path fill="#C3D8ED" d="M404.6,94.2h14.2V97h-5.4v17.6H410V97h-5.5V94.2z"/>
	<path fill="#C3D8ED" d="M433.4,96.9h-7.9v6h7v2.7h-7v6.2h7.9v2.7h-11.3V94.2h11.3V96.9z"/>
	<path fill="#C3D8ED" d="M444.6,94.2c4.8,0,7.2,2.8,7.2,6.1c0,2.4-1.3,5-4.7,5.8l5,8.4h-4l-4.7-8.1h-2.5v8.1h-3.3V94.2H444.6z
		 M444.6,97h-3.7v6.8h3.7c2.6,0,3.8-1.4,3.8-3.5C448.4,98.3,447.2,97,444.6,97z"/>
	<path fill="#C3D8ED" d="M456.1,94.2h3.3v20.4h-3.3V94.2z"/>
	<path fill="#C3D8ED" d="M475.1,96.9h-7.9v6h7v2.7h-7v6.2h7.9v2.7h-11.3V94.2h11.3V96.9z"/>
	<path fill="#C3D8ED" d="M479.1,94.2h3.3v13c0,3.2,1.8,4.7,4.6,4.7c2.8,0,4.6-1.5,4.6-4.7v-13h3.3v12.9c0,5.2-3.8,7.7-8,7.7
		c-4.3,0-7.9-2.5-7.9-7.7V94.2z"/>
	<path fill="#C3D8ED" d="M506.4,94.2c4.8,0,7.2,2.8,7.2,6.1c0,2.4-1.3,5-4.7,5.8l5,8.4h-4l-4.7-8.1h-2.5v8.1h-3.3V94.2H506.4z
		 M506.4,97h-3.7v6.8h3.7c2.6,0,3.8-1.4,3.8-3.5C510.2,98.3,509,97,506.4,97z"/>
	<path fill="#C3D8ED" d="M527.2,114.8c-5.7,0-10.4-4.3-10.4-10.4c0-6.1,4.7-10.4,10.4-10.4c5.8,0,10.4,4.3,10.4,10.4
		C537.6,110.5,533,114.8,527.2,114.8z M527.2,111.9c4,0,7-2.9,7-7.5s-2.9-7.5-7-7.5s-7,2.9-7,7.5S523.2,111.9,527.2,111.9z"/>
	<path fill="#C3D8ED" d="M557.6,94.2v20.4h-3.3l-10.1-15.2v15.2h-3.3V94.2h3.3l10.1,15.2V94.2H557.6z"/>
	<path fill="#C3D8ED" d="M561,94.2h14.2V97h-5.4v17.6h-3.3V97H561V94.2z"/>
	<path fill="#C3D8ED" d="M576.9,94.2h3.5l4.2,16.6l4.6-16.6h3.8l4.2,16.5l4.2-16.5h3.6l-6,20.4h-3.8L591,99.2l-4.5,15.4l-3.8,0
		L576.9,94.2z"/>
	<path fill="#C3D8ED" d="M619.1,96.9h-7.9v6h7v2.7h-7v6.2h7.9v2.7h-11.3V94.2h11.3V96.9z"/>
	<path fill="#C3D8ED" d="M630.3,94.2c4.8,0,7.2,2.8,7.2,6.1c0,2.4-1.3,5-4.7,5.8l5,8.4h-4l-4.7-8.1h-2.5v8.1h-3.3V94.2H630.3z
		 M630.3,97h-3.7v6.8h3.7c2.6,0,3.8-1.4,3.8-3.5C634,98.3,632.9,97,630.3,97z"/>
	<path fill="#C3D8ED" d="M648.8,106.3h-3.7v8.3h-3.3V94.2h7c4.8,0,7.2,2.8,7.2,6.1C656,103.2,654.1,106.3,648.8,106.3z M648.8,103.6
		c2.6,0,3.8-1.3,3.8-3.3c0-2.1-1.2-3.3-3.8-3.3h-3.7v6.7H648.8z"/>
	<path fill="#C3D8ED" d="M388,126.2h-7.9v6h7v2.7h-7v6.2h7.9v2.7h-11.3v-20.4H388V126.2z"/>
	<path fill="#C3D8ED" d="M408.9,123.5v20.4h-3.3l-10.1-15.2v15.2h-3.3v-20.4h3.3l10.1,15.2v-15.2H408.9z"/>
	<path fill="#C3D8ED" d="M421.2,131.9h12v2.8h-12V131.9z"/>
	<path fill="#C3D8ED" d="M450.3,139.8h-8.5l-1.5,4.2h-3.5l7.3-20.4h3.9l7.3,20.4h-3.5L450.3,139.8z M446.1,127.6l-3.3,9.5h6.7
		L446.1,127.6z"/>
	<path fill="#C3D8ED" d="M475.9,133.8c0,6.3-4.3,10.1-10.8,10.1h-6.7v-20.4h6.7C471.7,123.5,475.9,127.5,475.9,133.8z M465.1,141.2
		c4.8,0,7.4-2.8,7.4-7.4c0-4.7-2.6-7.5-7.4-7.5h-3.3v14.9H465.1z"/>
	<path fill="#C3D8ED" d="M493.3,123.5h3.5l-7.7,20.4h-3.9l-7.7-20.4h3.6l6,16.9L493.3,123.5z"/>
	<path fill="#C3D8ED" d="M499.6,123.5h3.3v20.4h-3.3V123.5z"/>
	<path fill="#C3D8ED" d="M518.6,126.2h-7.9v6h7v2.7h-7v6.2h7.9v2.7h-11.3v-20.4h11.3V126.2z"/>
	<path fill="#C3D8ED" d="M529.4,144.1c-4.1,0-7.2-2.2-7.2-5.8h3.6c0.1,1.7,1.3,3,3.6,3c2.3,0,3.7-1.3,3.7-3c0-4.9-10.8-1.7-10.8-9.2
		c0-3.6,2.8-5.8,7-5.8c3.9,0,6.7,2.1,6.9,5.5h-3.7c-0.1-1.4-1.3-2.6-3.4-2.7c-1.9-0.1-3.4,0.9-3.4,2.8c0,4.6,10.8,1.7,10.8,9.2
		C536.5,141.2,534,144.1,529.4,144.1z"/>
</g>
</svg>
